<?xml version="1.0" encoding="UTF-8" standalone="no"?>
<!DOCTYPE svg PUBLIC "-//W3C//DTD SVG 1.1//EN"
 "http://www.w3.org/Graphics/SVG/1.1/DTD/svg11.dtd">
<!-- Generated by graphviz version 2.47.1 (20210417.1919)
 -->
<!-- Title: dependency&#45;cruiser output Pages: 1 -->
<svg width="388pt" height="450pt"
 viewBox="0.00 0.00 388.00 450.00" xmlns="http://www.w3.org/2000/svg" xmlns:xlink="http://www.w3.org/1999/xlink">
<g id="graph0" class="graph" transform="scale(1 1) rotate(0) translate(4 446)">
<title>dependency&#45;cruiser output</title>
<polygon fill="white" stroke="transparent" points="-4,4 -4,-446 384,-446 384,4 -4,4"/>
<g id="clust1" class="cluster">
<title>cluster_routers</title>
<path fill="#ffffff" stroke="black" stroke-width="2" d="M105,-26C105,-26 261,-26 261,-26 267,-26 273,-32 273,-38 273,-38 273,-126 273,-126 273,-132 267,-138 261,-138 261,-138 105,-138 105,-138 99,-138 93,-132 93,-126 93,-126 93,-38 93,-38 93,-32 99,-26 105,-26"/>
<text text-anchor="middle" x="183" y="-126.8" font-family="Helvetica,sans-Serif" font-weight="bold" font-size="9.00">routers</text>
</g>
<g id="clust2" class="cluster">
<title>cluster_src</title>
<path fill="#ffffff" stroke="black" stroke-width="2" d="M20,-202C20,-202 261,-202 261,-202 267,-202 273,-208 273,-214 273,-214 273,-422 273,-422 273,-428 267,-434 261,-434 261,-434 20,-434 20,-434 14,-434 8,-428 8,-422 8,-422 8,-214 8,-214 8,-208 14,-202 20,-202"/>
<text text-anchor="middle" x="140.5" y="-422.8" font-family="Helvetica,sans-Serif" font-weight="bold" font-size="9.00">src</text>
</g>
<g id="clust3" class="cluster">
<title>cluster_src/AboutOthers</title>
<path fill="#ffffff" stroke="black" stroke-width="2" d="M206,-210C206,-210 253,-210 253,-210 259,-210 265,-216 265,-222 265,-222 265,-250 265,-250 265,-256 259,-262 253,-262 253,-262 206,-262 206,-262 200,-262 194,-256 194,-250 194,-250 194,-222 194,-222 194,-216 200,-210 206,-210"/>
<text text-anchor="middle" x="229.5" y="-250.8" font-family="Helvetica,sans-Serif" font-weight="bold" font-size="9.00">AboutOthers</text>
</g>
<g id="clust4" class="cluster">
<title>cluster_src/Login</title>
<path fill="#ffffff" stroke="black" stroke-width="2" d="M206,-296C206,-296 252,-296 252,-296 258,-296 264,-302 264,-308 264,-308 264,-336 264,-336 264,-342 258,-348 252,-348 252,-348 206,-348 206,-348 200,-348 194,-342 194,-336 194,-336 194,-308 194,-308 194,-302 200,-296 206,-296"/>
<text text-anchor="middle" x="229" y="-336.8" font-family="Helvetica,sans-Serif" font-weight="bold" font-size="9.00">Login</text>
</g>
<g id="clust5" class="cluster">
<title>cluster_src/OhLife</title>
<path fill="#ffffff" stroke="black" stroke-width="2" d="M206,-356C206,-356 252,-356 252,-356 258,-356 264,-362 264,-368 264,-368 264,-396 264,-396 264,-402 258,-408 252,-408 252,-408 206,-408 206,-408 200,-408 194,-402 194,-396 194,-396 194,-368 194,-368 194,-362 200,-356 206,-356"/>
<text text-anchor="middle" x="229" y="-396.8" font-family="Helvetica,sans-Serif" font-weight="bold" font-size="9.00">OhLife</text>
</g>
<!-- connectQueryEnd.js -->
<g id="node1" class="node">
<title>connectQueryEnd.js</title>
<g id="a_node1"><a xlink:href="connectQueryEnd.js" xlink:title="connectQueryEnd.js">
<path fill="#ffffcc" stroke="black" d="M374,-97C374,-97 287,-97 287,-97 284,-97 281,-94 281,-91 281,-91 281,-85 281,-85 281,-82 284,-79 287,-79 287,-79 374,-79 374,-79 377,-79 380,-82 380,-85 380,-85 380,-91 380,-91 380,-94 377,-97 374,-97"/>
<text text-anchor="middle" x="330.5" y="-85.8" font-family="Helvetica,sans-Serif" font-size="9.00">connectQueryEnd.js</text>
</a>
</g>
</g>
<!-- crypto -->
<g id="node2" class="node">
<title>crypto</title>
<path fill="#ffffcc" stroke="grey" d="M250,-18C250,-18 208,-18 208,-18 205,-18 202,-15 202,-12 202,-12 202,-6 202,-6 202,-3 205,0 208,0 208,0 250,0 250,0 253,0 256,-3 256,-6 256,-6 256,-12 256,-12 256,-15 253,-18 250,-18"/>
<text text-anchor="middle" x="229" y="-6.8" font-family="Helvetica,sans-Serif" font-size="9.00" fill="grey">crypto</text>
</g>
<!-- path -->
<g id="node3" class="node">
<title>path</title>
<path fill="#ffffcc" stroke="grey" d="M149,-164C149,-164 107,-164 107,-164 104,-164 101,-161 101,-158 101,-158 101,-152 101,-152 101,-149 104,-146 107,-146 107,-146 149,-146 149,-146 152,-146 155,-149 155,-152 155,-152 155,-158 155,-158 155,-161 152,-164 149,-164"/>
<text text-anchor="middle" x="128" y="-152.8" font-family="Helvetica,sans-Serif" font-size="9.00" fill="grey">path</text>
</g>
<!-- routers/entries.js -->
<g id="node4" class="node">
<title>routers/entries.js</title>
<g id="a_node4"><a xlink:href="routers/entries.js" xlink:title="entries.js">
<path fill="#ffffcc" stroke="black" d="M149,-112C149,-112 107,-112 107,-112 104,-112 101,-109 101,-106 101,-106 101,-100 101,-100 101,-97 104,-94 107,-94 107,-94 149,-94 149,-94 152,-94 155,-97 155,-100 155,-100 155,-106 155,-106 155,-109 152,-112 149,-112"/>
<text text-anchor="middle" x="128" y="-100.8" font-family="Helvetica,sans-Serif" font-size="9.00">entries.js</text>
</a>
</g>
</g>
<!-- routers/entriesUtils.js -->
<g id="node5" class="node">
<title>routers/entriesUtils.js</title>
<g id="a_node5"><a xlink:href="routers/entriesUtils.js" xlink:title="entriesUtils.js">
<path fill="#ffffcc" stroke="black" d="M258.5,-112C258.5,-112 199.5,-112 199.5,-112 196.5,-112 193.5,-109 193.5,-106 193.5,-106 193.5,-100 193.5,-100 193.5,-97 196.5,-94 199.5,-94 199.5,-94 258.5,-94 258.5,-94 261.5,-94 264.5,-97 264.5,-100 264.5,-100 264.5,-106 264.5,-106 264.5,-109 261.5,-112 258.5,-112"/>
<text text-anchor="middle" x="229" y="-100.8" font-family="Helvetica,sans-Serif" font-size="9.00">entriesUtils.js</text>
</a>
</g>
</g>
<!-- routers/entries.js&#45;&gt;routers/entriesUtils.js -->
<g id="edge1" class="edge">
<title>routers/entries.js&#45;&gt;routers/entriesUtils.js</title>
<path fill="none" stroke="#000000" stroke-width="2" stroke-opacity="0.200000" d="M155.01,-103C164.78,-103 176.14,-103 186.94,-103"/>
<polygon fill="#000000" fill-opacity="0.200000" stroke="#000000" stroke-width="2" stroke-opacity="0.200000" points="187.23,-105.1 193.23,-103 187.23,-100.9 187.23,-105.1"/>
</g>
<!-- routers/entriesUtils.js&#45;&gt;connectQueryEnd.js -->
<g id="edge2" class="edge">
<title>routers/entriesUtils.js&#45;&gt;connectQueryEnd.js</title>
<path fill="none" stroke="#000000" stroke-width="2" stroke-opacity="0.200000" d="M264.52,-97.8C267.9,-97.29 271.38,-96.76 274.9,-96.23"/>
<polygon fill="#000000" fill-opacity="0.200000" stroke="#000000" stroke-width="2" stroke-opacity="0.200000" points="275.22,-98.31 280.84,-95.34 274.59,-94.15 275.22,-98.31"/>
</g>
<!-- routers/login.js -->
<g id="node6" class="node">
<title>routers/login.js</title>
<g id="a_node6"><a xlink:href="routers/login.js" xlink:title="login.js">
<path fill="#ffffcc" stroke="black" d="M149,-52C149,-52 107,-52 107,-52 104,-52 101,-49 101,-46 101,-46 101,-40 101,-40 101,-37 104,-34 107,-34 107,-34 149,-34 149,-34 152,-34 155,-37 155,-40 155,-40 155,-46 155,-46 155,-49 152,-52 149,-52"/>
<text text-anchor="middle" x="128" y="-40.8" font-family="Helvetica,sans-Serif" font-size="9.00">login.js</text>
</a>
</g>
</g>
<!-- routers/login.js&#45;&gt;crypto -->
<g id="edge3" class="edge">
<title>routers/login.js&#45;&gt;crypto</title>
<path fill="none" stroke="#000000" stroke-dasharray="5,2" stroke-opacity="0.200000" d="M155.01,-34.07C167.53,-29.77 182.66,-24.57 195.89,-20.03"/>
<polygon fill="#000000" fill-opacity="0.200000" stroke="#000000" stroke-opacity="0.200000" points="196.83,-21.93 201.82,-17.99 195.46,-17.95 196.83,-21.93"/>
</g>
<!-- routers/people.js -->
<g id="node7" class="node">
<title>routers/people.js</title>
<g id="a_node7"><a xlink:href="routers/people.js" xlink:title="people.js">
<path fill="#ffffcc" stroke="black" d="M149,-82C149,-82 107,-82 107,-82 104,-82 101,-79 101,-76 101,-76 101,-70 101,-70 101,-67 104,-64 107,-64 107,-64 149,-64 149,-64 152,-64 155,-67 155,-70 155,-70 155,-76 155,-76 155,-79 152,-82 149,-82"/>
<text text-anchor="middle" x="128" y="-70.8" font-family="Helvetica,sans-Serif" font-size="9.00">people.js</text>
</a>
</g>
</g>
<!-- routers/peopleUtils.js -->
<g id="node8" class="node">
<title>routers/peopleUtils.js</title>
<g id="a_node8"><a xlink:href="routers/peopleUtils.js" xlink:title="peopleUtils.js">
<path fill="#ffffcc" stroke="black" d="M259,-82C259,-82 199,-82 199,-82 196,-82 193,-79 193,-76 193,-76 193,-70 193,-70 193,-67 196,-64 199,-64 199,-64 259,-64 259,-64 262,-64 265,-67 265,-70 265,-70 265,-76 265,-76 265,-79 262,-82 259,-82"/>
<text text-anchor="middle" x="229" y="-70.8" font-family="Helvetica,sans-Serif" font-size="9.00">peopleUtils.js</text>
</a>
</g>
</g>
<!-- routers/people.js&#45;&gt;routers/peopleUtils.js -->
<g id="edge4" class="edge">
<title>routers/people.js&#45;&gt;routers/peopleUtils.js</title>
<path fill="none" stroke="#000000" stroke-width="2" stroke-opacity="0.200000" d="M155.01,-73C164.68,-73 175.92,-73 186.63,-73"/>
<polygon fill="#000000" fill-opacity="0.200000" stroke="#000000" stroke-width="2" stroke-opacity="0.200000" points="186.86,-75.1 192.86,-73 186.86,-70.9 186.86,-75.1"/>
</g>
<!-- routers/peopleUtils.js&#45;&gt;connectQueryEnd.js -->
<g id="edge5" class="edge">
<title>routers/peopleUtils.js&#45;&gt;connectQueryEnd.js</title>
<path fill="none" stroke="#000000" stroke-width="2" stroke-opacity="0.200000" d="M265.08,-78.29C268.3,-78.77 271.6,-79.27 274.94,-79.77"/>
<polygon fill="#000000" fill-opacity="0.200000" stroke="#000000" stroke-width="2" stroke-opacity="0.200000" points="274.72,-81.87 280.96,-80.68 275.34,-77.71 274.72,-81.87"/>
</g>
<!-- sendDailyEmail.js -->
<g id="node9" class="node">
<title>sendDailyEmail.js</title>
<g id="a_node9"><a xlink:href="sendDailyEmail.js" xlink:title="sendDailyEmail.js">
<path fill="#ffffcc" stroke="black" d="M167,-194C167,-194 89,-194 89,-194 86,-194 83,-191 83,-188 83,-188 83,-182 83,-182 83,-179 86,-176 89,-176 89,-176 167,-176 167,-176 170,-176 173,-179 173,-182 173,-182 173,-188 173,-188 173,-191 170,-194 167,-194"/>
<text text-anchor="middle" x="128" y="-182.8" font-family="Helvetica,sans-Serif" font-size="9.00">sendDailyEmail.js</text>
</a>
</g>
</g>
<!-- sendDailyEmail.js&#45;&gt;routers/entriesUtils.js -->
<g id="edge6" class="edge">
<title>sendDailyEmail.js&#45;&gt;routers/entriesUtils.js</title>
<path fill="none" stroke="#000000" stroke-width="2" stroke-opacity="0.200000" d="M162.18,-175.96C165.98,-174.27 169.68,-172.3 173,-170 193.27,-155.95 210.13,-132.44 219.63,-117.33"/>
<polygon fill="#000000" fill-opacity="0.200000" stroke="#000000" stroke-width="2" stroke-opacity="0.200000" points="221.45,-118.39 222.8,-112.18 217.87,-116.19 221.45,-118.39"/>
</g>
<!-- server.js -->
<g id="node10" class="node">
<title>server.js</title>
<g id="a_node10"><a xlink:href="server.js" xlink:title="server.js">
<path fill="#ffffcc" stroke="black" d="M64,-112C64,-112 22,-112 22,-112 19,-112 16,-109 16,-106 16,-106 16,-100 16,-100 16,-97 19,-94 22,-94 22,-94 64,-94 64,-94 67,-94 70,-97 70,-100 70,-100 70,-106 70,-106 70,-109 67,-112 64,-112"/>
<text text-anchor="middle" x="43" y="-100.8" font-family="Helvetica,sans-Serif" font-size="9.00">server.js</text>
</a>
</g>
</g>
<!-- server.js&#45;&gt;path -->
<g id="edge11" class="edge">
<title>server.js&#45;&gt;path</title>
<path fill="none" stroke="#000000" stroke-dasharray="5,2" stroke-opacity="0.200000" d="M51.14,-112.07C58.34,-120.64 70.19,-133.32 83,-141 86.69,-143.21 90.76,-145.11 94.89,-146.73"/>
<polygon fill="#000000" fill-opacity="0.200000" stroke="#000000" stroke-opacity="0.200000" points="94.19,-148.71 100.54,-148.77 95.61,-144.76 94.19,-148.71"/>
</g>
<!-- server.js&#45;&gt;routers/entries.js -->
<g id="edge7" class="edge">
<title>server.js&#45;&gt;routers/entries.js</title>
<path fill="none" stroke="#000000" stroke-width="2" stroke-opacity="0.200000" d="M70.26,-103C78.06,-103 86.69,-103 94.81,-103"/>
<polygon fill="#000000" fill-opacity="0.200000" stroke="#000000" stroke-width="2" stroke-opacity="0.200000" points="94.91,-105.1 100.91,-103 94.91,-100.9 94.91,-105.1"/>
</g>
<!-- server.js&#45;&gt;routers/login.js -->
<g id="edge8" class="edge">
<title>server.js&#45;&gt;routers/login.js</title>
<path fill="none" stroke="#000000" stroke-width="2" stroke-opacity="0.200000" d="M49.79,-93.78C56.59,-83.66 68.76,-67.59 83,-58 86.68,-55.52 90.81,-53.41 95.03,-51.64"/>
<polygon fill="#000000" fill-opacity="0.200000" stroke="#000000" stroke-width="2" stroke-opacity="0.200000" points="95.96,-53.53 100.8,-49.41 94.45,-49.61 95.96,-53.53"/>
</g>
<!-- server.js&#45;&gt;routers/people.js -->
<g id="edge9" class="edge">
<title>server.js&#45;&gt;routers/people.js</title>
<path fill="none" stroke="#000000" stroke-width="2" stroke-opacity="0.200000" d="M67.04,-93.97C72.27,-91.96 77.82,-89.88 83,-88 86.87,-86.6 90.95,-85.15 95,-83.75"/>
<polygon fill="#000000" fill-opacity="0.200000" stroke="#000000" stroke-width="2" stroke-opacity="0.200000" points="95.9,-85.66 100.88,-81.72 94.53,-81.69 95.9,-85.66"/>
</g>
<!-- server.js&#45;&gt;sendDailyEmail.js -->
<g id="edge10" class="edge">
<title>server.js&#45;&gt;sendDailyEmail.js</title>
<path fill="none" stroke="#000000" stroke-width="2" stroke-opacity="0.200000" d="M46.97,-112.2C52.07,-126.56 63.84,-154.31 83,-170 84.2,-170.98 85.47,-171.91 86.79,-172.77"/>
<polygon fill="#000000" fill-opacity="0.200000" stroke="#000000" stroke-width="2" stroke-opacity="0.200000" points="85.85,-174.65 92.11,-175.81 87.94,-171 85.85,-174.65"/>
</g>
<!-- src/AboutOthers/index.jsx -->
<g id="node11" class="node">
<title>src/AboutOthers/index.jsx</title>
<g id="a_node11"><a xlink:href="src/AboutOthers/index.jsx" xlink:title="index.jsx">
<path fill="#ffff77" stroke="black" d="M250,-236C250,-236 208,-236 208,-236 205,-236 202,-233 202,-230 202,-230 202,-224 202,-224 202,-221 205,-218 208,-218 208,-218 250,-218 250,-218 253,-218 256,-221 256,-224 256,-224 256,-230 256,-230 256,-233 253,-236 250,-236"/>
<text text-anchor="middle" x="229" y="-224.8" font-family="Helvetica,sans-Serif" font-size="9.00">index.jsx</text>
</a>
</g>
</g>
<!-- src/App.css -->
<g id="node12" class="node">
<title>src/App.css</title>
<g id="a_node12"><a xlink:href="src/App.css" xlink:title="App.css">
<path fill="#ffffcc" stroke="black" d="M250,-288C250,-288 208,-288 208,-288 205,-288 202,-285 202,-282 202,-282 202,-276 202,-276 202,-273 205,-270 208,-270 208,-270 250,-270 250,-270 253,-270 256,-273 256,-276 256,-276 256,-282 256,-282 256,-285 253,-288 250,-288"/>
<text text-anchor="middle" x="229" y="-276.8" font-family="Helvetica,sans-Serif" font-size="9.00">App.css</text>
</a>
</g>
</g>
<!-- src/App.jsx -->
<g id="node13" class="node">
<title>src/App.jsx</title>
<g id="a_node13"><a xlink:href="src/App.jsx" xlink:title="App.jsx">
<path fill="#ffff77" stroke="black" d="M149,-305C149,-305 107,-305 107,-305 104,-305 101,-302 101,-299 101,-299 101,-293 101,-293 101,-290 104,-287 107,-287 107,-287 149,-287 149,-287 152,-287 155,-290 155,-293 155,-293 155,-299 155,-299 155,-302 152,-305 149,-305"/>
<text text-anchor="middle" x="128" y="-293.8" font-family="Helvetica,sans-Serif" font-size="9.00">App.jsx</text>
</a>
</g>
</g>
<!-- src/App.jsx&#45;&gt;src/AboutOthers/index.jsx -->
<g id="edge12" class="edge">
<title>src/App.jsx&#45;&gt;src/AboutOthers/index.jsx</title>
<path fill="none" stroke="#000000" stroke-width="2" stroke-opacity="0.200000" d="M137.3,-286.91C148.8,-274.78 170.68,-253.3 193,-240 194.04,-239.38 195.12,-238.78 196.23,-238.2"/>
<polygon fill="#000000" fill-opacity="0.200000" stroke="#000000" stroke-width="2" stroke-opacity="0.200000" points="197.39,-239.97 201.89,-235.48 195.57,-236.18 197.39,-239.97"/>
</g>
<!-- src/App.jsx&#45;&gt;src/App.css -->
<g id="edge13" class="edge">
<title>src/App.jsx&#45;&gt;src/App.css</title>
<path fill="none" stroke="#000000" stroke-width="2" stroke-opacity="0.200000" d="M155.01,-291.53C167.53,-289.38 182.66,-286.79 195.89,-284.51"/>
<polygon fill="#000000" fill-opacity="0.200000" stroke="#000000" stroke-width="2" stroke-opacity="0.200000" points="196.26,-286.58 201.82,-283.5 195.55,-282.44 196.26,-286.58"/>
</g>
<!-- src/Login/index.jsx -->
<g id="node14" class="node">
<title>src/Login/index.jsx</title>
<g id="a_node14"><a xlink:href="src/Login/index.jsx" xlink:title="index.jsx">
<path fill="#ffff77" stroke="black" d="M250,-322C250,-322 208,-322 208,-322 205,-322 202,-319 202,-316 202,-316 202,-310 202,-310 202,-307 205,-304 208,-304 208,-304 250,-304 250,-304 253,-304 256,-307 256,-310 256,-310 256,-316 256,-316 256,-319 253,-322 250,-322"/>
<text text-anchor="middle" x="229" y="-310.8" font-family="Helvetica,sans-Serif" font-size="9.00">index.jsx</text>
</a>
</g>
</g>
<!-- src/App.jsx&#45;&gt;src/Login/index.jsx -->
<g id="edge14" class="edge">
<title>src/App.jsx&#45;&gt;src/Login/index.jsx</title>
<path fill="none" stroke="#000000" stroke-width="2" stroke-opacity="0.200000" d="M155.01,-300.47C167.53,-302.62 182.66,-305.21 195.89,-307.49"/>
<polygon fill="#000000" fill-opacity="0.200000" stroke="#000000" stroke-width="2" stroke-opacity="0.200000" points="195.55,-309.56 201.82,-308.5 196.26,-305.42 195.55,-309.56"/>
</g>
<!-- src/OhLife/index.jsx -->
<g id="node15" class="node">
<title>src/OhLife/index.jsx</title>
<g id="a_node15"><a xlink:href="src/OhLife/index.jsx" xlink:title="index.jsx">
<path fill="#ffff77" stroke="black" d="M250,-382C250,-382 208,-382 208,-382 205,-382 202,-379 202,-376 202,-376 202,-370 202,-370 202,-367 205,-364 208,-364 208,-364 250,-364 250,-364 253,-364 256,-367 256,-370 256,-370 256,-376 256,-376 256,-379 253,-382 250,-382"/>
<text text-anchor="middle" x="229" y="-370.8" font-family="Helvetica,sans-Serif" font-size="9.00">index.jsx</text>
</a>
</g>
</g>
<!-- src/App.jsx&#45;&gt;src/OhLife/index.jsx -->
<g id="edge15" class="edge">
<title>src/App.jsx&#45;&gt;src/OhLife/index.jsx</title>
<path fill="none" stroke="#000000" stroke-width="2" stroke-opacity="0.200000" d="M155.44,-301.34C161.71,-303.54 168.02,-306.65 173,-311 187.97,-324.07 179.65,-336.28 193,-351 196.25,-354.59 200.23,-357.81 204.31,-360.62"/>
<polygon fill="#000000" fill-opacity="0.200000" stroke="#000000" stroke-width="2" stroke-opacity="0.200000" points="203.31,-362.47 209.5,-363.94 205.58,-358.94 203.31,-362.47"/>
</g>
<!-- src/index.css -->
<g id="node16" class="node">
<title>src/index.css</title>
<g id="a_node16"><a xlink:href="src/index.css" xlink:title="index.css">
<path fill="#ffffcc" stroke="black" d="M149.5,-335C149.5,-335 106.5,-335 106.5,-335 103.5,-335 100.5,-332 100.5,-329 100.5,-329 100.5,-323 100.5,-323 100.5,-320 103.5,-317 106.5,-317 106.5,-317 149.5,-317 149.5,-317 152.5,-317 155.5,-320 155.5,-323 155.5,-323 155.5,-329 155.5,-329 155.5,-332 152.5,-335 149.5,-335"/>
<text text-anchor="middle" x="128" y="-323.8" font-family="Helvetica,sans-Serif" font-size="9.00">index.css</text>
</a>
</g>
</g>
<!-- src/index.jsx -->
<g id="node17" class="node">
<title>src/index.jsx</title>
<g id="a_node17"><a xlink:href="src/index.jsx" xlink:title="index.jsx">
<path fill="#ffff77" stroke="black" d="M64,-335C64,-335 22,-335 22,-335 19,-335 16,-332 16,-329 16,-329 16,-323 16,-323 16,-320 19,-317 22,-317 22,-317 64,-317 64,-317 67,-317 70,-320 70,-323 70,-323 70,-329 70,-329 70,-332 67,-335 64,-335"/>
<text text-anchor="middle" x="43" y="-323.8" font-family="Helvetica,sans-Serif" font-size="9.00">index.jsx</text>
</a>
</g>
</g>
<!-- src/index.jsx&#45;&gt;src/App.jsx -->
<g id="edge16" class="edge">
<title>src/index.jsx&#45;&gt;src/App.jsx</title>
<path fill="none" stroke="#000000" stroke-width="2" stroke-opacity="0.200000" d="M67.04,-316.97C72.27,-314.96 77.82,-312.88 83,-311 86.87,-309.6 90.95,-308.15 95,-306.75"/>
<polygon fill="#000000" fill-opacity="0.200000" stroke="#000000" stroke-width="2" stroke-opacity="0.200000" points="95.9,-308.66 100.88,-304.72 94.53,-304.69 95.9,-308.66"/>
</g>
<!-- src/index.jsx&#45;&gt;src/index.css -->
<g id="edge17" class="edge">
<title>src/index.jsx&#45;&gt;src/index.css</title>
<path fill="none" stroke="#000000" stroke-width="2" stroke-opacity="0.200000" d="M70.26,-326C77.76,-326 86.02,-326 93.87,-326"/>
<polygon fill="#000000" fill-opacity="0.200000" stroke="#000000" stroke-width="2" stroke-opacity="0.200000" points="94.34,-328.1 100.34,-326 94.34,-323.9 94.34,-328.1"/>
</g>
<!-- src/serviceWorker.js -->
<g id="node18" class="node">
<title>src/serviceWorker.js</title>
<g id="a_node18"><a xlink:href="src/serviceWorker.js" xlink:title="serviceWorker.js">
<path fill="#ffffcc" stroke="black" d="M164,-365C164,-365 92,-365 92,-365 89,-365 86,-362 86,-359 86,-359 86,-353 86,-353 86,-350 89,-347 92,-347 92,-347 164,-347 164,-347 167,-347 170,-350 170,-353 170,-353 170,-359 170,-359 170,-362 167,-365 164,-365"/>
<text text-anchor="middle" x="128" y="-353.8" font-family="Helvetica,sans-Serif" font-size="9.00">serviceWorker.js</text>
</a>
</g>
</g>
<!-- src/index.jsx&#45;&gt;src/serviceWorker.js -->
<g id="edge18" class="edge">
<title>src/index.jsx&#45;&gt;src/serviceWorker.js</title>
<path fill="none" stroke="#000000" stroke-width="2" stroke-opacity="0.200000" d="M67.04,-335.03C72.27,-337.04 77.82,-339.12 83,-341 86.58,-342.3 90.35,-343.63 94.09,-344.94"/>
<polygon fill="#000000" fill-opacity="0.200000" stroke="#000000" stroke-width="2" stroke-opacity="0.200000" points="93.59,-346.99 99.95,-346.96 94.97,-343.02 93.59,-346.99"/>
</g>
</g>
</svg>
